<svg xmlns="http://www.w3.org/2000/svg" viewBox="0 0 512 512">
  <defs>
    <linearGradient id="bg" x1="0" y1="0" x2="0" y2="1">
      <stop offset="0" stop-color="#1a212b"/>
      <stop offset="1" stop-color="#0d1117"/>
    </linearGradient>
    <clipPath id="squircle"><rect width="512" height="512" rx="112"/></clipPath>
  </defs>
  <rect width="512" height="512" rx="112" fill="url(#bg)"/>
  <!-- ruler strip on the right -->
  <g clip-path="url(#squircle)">
    <rect x="400" y="0" width="112" height="512" fill="#161b22"/>
    <line x1="400" y1="0" x2="400" y2="512" stroke="#21262d" stroke-width="4"/>
    <g stroke="#f0a832" stroke-width="8" stroke-linecap="round">
      <line x1="512" y1="64"  x2="440" y2="64"/>
      <line x1="512" y1="192" x2="440" y2="192"/>
      <line x1="512" y1="320" x2="440" y2="320"/>
      <line x1="512" y1="448" x2="440" y2="448"/>
    </g>
    <g stroke="#8b949e" stroke-width="6" stroke-linecap="round">
      <line x1="512" y1="128" x2="466" y2="128"/>
      <line x1="512" y1="256" x2="466" y2="256"/>
      <line x1="512" y1="384" x2="466" y2="384"/>
    </g>
  </g>
  <!-- compass dial -->
  <circle cx="220" cy="256" r="150" fill="none" stroke="#8b949e" stroke-width="10" opacity="0.65"/>
  <circle cx="220" cy="256" r="150" fill="none" stroke="#f0a832" stroke-width="10"
          stroke-dasharray="60 883" stroke-dashoffset="295" stroke-linecap="round"/>
  <!-- needle -->
  <g transform="rotate(38 220 256)">
    <path d="M220 130 L252 256 L220 382 L188 256 Z" fill="#f0a832"/>
    <path d="M220 130 L252 256 L220 256 Z" fill="#f85149"/>
    <circle cx="220" cy="256" r="26" fill="#0d1117" stroke="#e6edf3" stroke-width="8"/>
  </g>
</svg>
