<svg xmlns="http://www.w3.org/2000/svg" viewBox="0 0 512 512">
  <defs>
    <linearGradient id="bg" x1="0" y1="0" x2="0" y2="1">
      <stop offset="0" stop-color="#1a212b"/>
      <stop offset="1" stop-color="#0d1117"/>
    </linearGradient>
  </defs>
  <!-- full-bleed background: launchers apply their own mask/corners -->
  <rect width="512" height="512" fill="url(#bg)"/>
  <!-- ruler strip on the right (decorative bleed; crops cleanly under round masks) -->
  <rect x="428" y="0" width="84" height="512" fill="#161b22"/>
  <line x1="428" y1="0" x2="428" y2="512" stroke="#21262d" stroke-width="4"/>
  <g stroke="#f0a832" stroke-width="8" stroke-linecap="round">
    <line x1="512" y1="96"  x2="452" y2="96"/>
    <line x1="512" y1="256" x2="452" y2="256"/>
    <line x1="512" y1="416" x2="452" y2="416"/>
  </g>
  <g stroke="#8b949e" stroke-width="6" stroke-linecap="round">
    <line x1="512" y1="176" x2="472" y2="176"/>
    <line x1="512" y1="336" x2="472" y2="336"/>
  </g>
  <!-- compass dial, dead center and large (fits the 80% maskable safe zone) -->
  <circle cx="256" cy="256" r="178" fill="none" stroke="#8b949e" stroke-width="12" opacity="0.65"/>
  <circle cx="256" cy="256" r="178" fill="none" stroke="#f0a832" stroke-width="12"
          stroke-dasharray="72 1046" stroke-dashoffset="350" stroke-linecap="round"/>
  <!-- needle -->
  <g transform="rotate(38 256 256)">
    <path d="M256 106 L294 256 L256 406 L218 256 Z" fill="#f0a832"/>
    <path d="M256 106 L294 256 L256 256 Z" fill="#f85149"/>
    <circle cx="256" cy="256" r="31" fill="#0d1117" stroke="#e6edf3" stroke-width="9"/>
  </g>
</svg>
